<svg width="18" height="20" viewBox="0 0 18 20" fill="none" xmlns="http://www.w3.org/2000/svg">
<path d="M5.20525 5.44989C5.23388 4.9187 5.22183 4.41839 5.2934 3.93015C5.55184 2.15724 7.15899 0.812307 8.97107 0.820595C10.7779 0.828883 12.3677 2.16855 12.6231 3.92789C12.6939 4.41613 12.6834 4.91719 12.7113 5.43633C12.8077 5.44085 12.9079 5.44914 13.0074 5.44914C13.6938 5.45064 14.3802 5.44612 15.0666 5.4514C15.4358 5.45441 15.5812 5.57421 15.631 5.93889C15.8367 7.44733 16.0356 8.95577 16.2352 10.465C16.5276 12.6726 16.8184 14.8803 17.11 17.0872C17.1718 17.5528 17.2494 18.0169 17.2901 18.4849C17.3021 18.6288 17.2532 18.8119 17.1643 18.9226C16.9834 19.1479 16.7725 19.3589 16.5404 19.5299C16.4191 19.6196 16.2262 19.6452 16.065 19.6452C12.107 19.6512 8.14904 19.6497 4.19033 19.6497C3.40974 19.6497 2.6299 19.6429 1.84931 19.6535C1.5969 19.6572 1.38668 19.6015 1.22243 19.4041C1.19832 19.3754 1.17119 19.3483 1.1403 19.3265C0.66637 18.998 0.58801 18.5685 0.66863 18.0041C1.05064 15.3256 1.38894 12.641 1.74307 9.95788C1.91637 8.64458 2.08665 7.33054 2.26372 6.018C2.32626 5.55236 2.45359 5.45064 2.9328 5.44989C3.68475 5.44838 4.43671 5.44989 5.20525 5.44989ZM8.95525 18.7463C11.239 18.7463 13.5228 18.7463 15.8065 18.7463C16.2239 18.7463 16.3935 18.5655 16.3407 18.1639C16.1697 16.8506 15.9949 15.538 15.8208 14.2255C15.487 11.7022 15.151 9.17955 14.8247 6.65544C14.7954 6.42638 14.7268 6.34651 14.4797 6.34651C10.7952 6.35556 7.11152 6.35556 3.42707 6.34651C3.18144 6.34576 3.11438 6.42412 3.085 6.65694C2.87779 8.30628 2.65401 9.95336 2.43626 11.6019C2.14693 13.79 1.85685 15.9781 1.57053 18.1661C1.51703 18.5738 1.6828 18.7463 2.10172 18.7463C4.38774 18.7471 6.67149 18.7463 8.95525 18.7463ZM6.11468 5.42503C8.03903 5.42503 9.90236 5.42503 11.7845 5.42503C11.7845 5.06336 11.7958 4.71752 11.7823 4.37319C11.7273 2.97852 10.5805 1.82496 9.15642 1.72325C7.75724 1.62304 6.42662 2.6372 6.2051 4.00625C6.13126 4.46511 6.14331 4.93678 6.11468 5.42503Z" fill="white"/>
</svg>
