<svg width="91" height="71" viewBox="0 0 91 71" fill="none" xmlns="http://www.w3.org/2000/svg">
<path d="M6.14518 17.4149H9.17958H10.0614H27.0527H27.7679H29.7816C32.5382 17.4149 33.9408 15.8664 33.9408 12.8181L33.9269 1.36101V1.09021H33.6561H31.0661H30.7953V1.36101L30.8092 11.9085C30.8092 12.9639 30.7051 13.3736 30.6426 13.5264C30.5176 13.7833 30.2259 14.1444 29.2469 14.1444H27.7609H27.0457H25.5598C25.3029 10.8878 24.1016 8.55469 21.9838 7.20761C20.7408 6.41603 19.2757 6.02024 17.6301 6.02024C16.5607 6.02024 15.4984 6.25633 14.4637 6.71461C13.5194 7.14512 12.6861 7.7145 11.9085 8.46442L11.7487 8.61719L11.8668 8.80467C12.4778 9.75595 12.8667 10.4226 13.1028 10.8878L13.2833 11.2489L13.5472 10.9433C14.0749 10.3323 14.7415 9.85317 15.5331 9.51292C16.1927 9.22823 16.8107 9.08241 17.3731 9.08241C18.991 9.08241 20.2548 9.65874 21.1436 10.7975C21.8657 11.7349 22.2407 12.839 22.2824 14.1652H10.0614H9.17958H6.34655V6.29105V6.02718H6.07574H3.48574H3.21494V6.29799V15.429C3.21494 17.5607 2.27754 18.5536 0.270804 18.5536H0V18.8244V21.1159V21.3867H0.270804C3.52046 21.3797 5.64523 19.9424 6.14518 17.4149Z" fill="white"/>
<path d="M16.04 19.4354V19.6993V22.3796V22.6504H16.3108H18.8522H19.123V22.3796V19.6993V19.4354H18.8522H16.3108H16.04Z" fill="white"/>
<path d="M35.7809 17.4149H36.0517H38.6209H38.8917V17.1441L38.8778 1.36103V1.09717H38.607H36.0378H35.767V1.36797L35.7809 17.1441V17.4149Z" fill="white"/>
<path d="M57.3411 17.4149H57.6119V17.1441V14.4222C57.5911 10.2212 55.9524 7.53401 52.7583 6.42301C52.2028 6.22859 51.7028 6.1036 51.3001 6.07583C50.9876 6.055 50.1891 6.02722 48.8767 6.02722H48.6059V6.29803V8.73527V9.00607H48.8767C49.835 9.00607 50.5363 9.06856 51.1543 9.21438C53.3138 9.70044 54.397 11.3183 54.4595 14.1583H46.3492H46.0784V14.4291V17.151V17.4218H46.3492H57.3411V17.4149Z" fill="white"/>
<path d="M62.5558 1.36103L62.5489 1.09717H62.285H59.7159H59.4451V1.36797L59.459 17.1441V17.4149H59.7298H62.2989H62.5697V17.1441L62.5558 1.36103Z" fill="white"/>
<path d="M71.7424 5.20084H72.0132V4.93003V3.42325V3.15244H71.7424H69.5829C69.444 3.06912 69.3746 2.87469 69.3746 2.58306C69.3746 1.94424 69.6593 1.94424 69.7773 1.94424C69.8468 1.94424 70.0203 1.94424 70.1662 2.38169L70.2634 2.66638L70.5342 2.53445L71.8327 1.91646L72.0618 1.80536L71.9646 1.56928C71.5341 0.541609 70.7703 0 69.7704 0C68.4025 0 67.3262 1.1596 67.3262 2.63861C67.3262 2.79137 67.3401 2.96496 67.3748 3.15939H66.5971H66.3263V3.43019V4.93003V5.20084H66.5971H71.7424Z" fill="white"/>
<path d="M86.6019 4.31898H86.8727V4.04818V1.39568V1.12488H86.6019H84.0744H83.8105V1.39568V4.04818V4.31898H84.0744H86.6019Z" fill="white"/>
<path d="M69.5412 17.4148H71.6382C71.2633 18.2966 70.5619 18.7132 69.4509 18.7132H69.1801V18.984V21.088V21.3588H69.4509C72.5201 21.3588 74.2977 20.0325 74.7282 17.4148H77.1099H77.6376H85.3451C88.5531 17.4148 90.7959 15.04 90.7959 11.6445C90.7959 8.24907 88.5045 5.78406 85.3451 5.78406C82.1093 5.78406 79.8457 8.16575 79.8457 11.5751C79.8457 12.4847 80.0193 13.3458 80.3595 14.1512H77.6376H77.1099H74.742V11.6515C74.742 8.381 72.6034 6.00626 69.6593 6.00626C66.4999 6.00626 64.2085 8.35323 64.2085 11.5821C64.2015 14.8525 66.5485 17.4148 69.5412 17.4148ZM69.6107 8.99899C70.7286 8.99899 71.4785 9.81141 71.6104 11.1724V14.1512H69.5898C68.3747 14.1512 67.3817 12.9291 67.3817 11.4362C67.3817 9.95722 68.2566 8.99899 69.6107 8.99899ZM85.2548 8.76291C86.6366 8.76291 87.6018 9.95028 87.6018 11.6515C87.6018 13.3041 86.713 14.4151 85.3937 14.4151C84.0536 14.4151 83.0467 13.186 83.0467 11.5543C83.0537 9.85307 83.9147 8.76291 85.2548 8.76291Z" fill="white"/>
<path d="M5.1314 44.891H4.8606V45.1687V47.856V48.1337H5.1314H7.85333H8.12414V47.856V45.1687V44.891H7.85333H5.1314Z" fill="white"/>
<path d="M9.8045 44.891H9.53369V45.1687V47.856V48.1337H9.8045H12.5264H12.8042V47.856V45.1687V44.891H12.5264H9.8045Z" fill="white"/>
<path d="M45.2521 27.1985H44.9813V27.4693V33.1701C44.9813 34.2325 44.8702 34.6561 44.8077 34.8088C44.5925 35.2324 44.0995 35.4407 43.301 35.4407H41.4678H40.9748H39.5375C39.4403 29.2539 36.1073 24.7682 30.7884 23.7128L30.5037 23.6572L30.462 23.9489L30.1149 26.5458L30.0801 26.8027L30.3301 26.8513C33.7603 27.5457 36.2462 30.962 36.2462 34.9685C36.2462 35.1282 36.2462 35.2879 36.2392 35.4476H33.6353C33.9756 34.5658 34.1492 33.8159 34.1492 33.1979C34.1492 30.1774 32.1285 28.2192 29.0039 28.2192C25.9139 28.2192 23.8308 30.219 23.8308 33.1979C23.8308 33.8298 23.9975 34.5519 24.3377 35.4476H21.9977H21.3311H20.9631C19.6507 35.4476 18.7688 34.781 17.8106 33.0659C16.6718 31.0592 14.9429 30.0385 12.6723 30.0385H11.5821H11.3113V30.3093V32.7813V33.1007L11.6307 33.0451C11.7557 33.0243 11.8876 33.0243 12.0335 33.0243C13.4083 33.0243 14.2554 33.9061 14.2554 35.3226C14.2554 37.7252 11.9015 39.6069 8.88795 39.6069C5.47165 39.6069 3.34688 37.371 3.34688 33.7742V31.3717V31.1009H3.07607H0.305533H0.034729V31.3717V34.0867C0.034729 38.9612 3.89543 42.7732 8.81852 42.7732C12.832 42.7732 16.0747 40.4679 17.0815 36.9822C18.0606 38.2321 19.0396 38.6487 21.0603 38.732V38.739L21.3311 38.7528H40.9679H41.4609H43.8842C46.8075 38.7528 48.2865 37.1836 48.2865 34.0867V27.4693V27.1985H48.0157H45.2521ZM29.0039 30.9203C30.219 30.9203 31.0037 31.8091 31.0037 33.1909C31.0037 34.5172 30.1426 35.5101 29.0039 35.5101C27.8443 35.5101 27.0041 34.5311 27.0041 33.1909C26.9971 32.0938 27.5249 30.9203 29.0039 30.9203Z" fill="white"/>
<path d="M40.5513 40.7943H40.2805V41.0721V43.787V44.0579H40.5513H43.2732H43.5509V43.787V41.0721V40.7943H43.2732H40.5513Z" fill="white"/>
<path d="M45.2313 40.7943H44.9536V41.0721V43.787V44.0579H45.2313H47.9463H48.224V43.787V41.0721V40.7943H47.9463H45.2313Z" fill="white"/>
<path d="M55.6677 27.1708C52.3764 27.1708 50.078 29.5455 50.078 32.9479C50.078 36.3642 52.3764 38.7459 55.6677 38.7459C56.6259 38.7459 57.3758 38.5237 57.9244 38.0793C57.6744 39.3431 56.9037 40.0027 55.633 40.0375L55.3691 40.0444V40.3083V42.4678V42.7386H55.6399C59.3826 42.7386 61.2782 41.1832 61.2782 38.1279V33.0104C61.2851 29.5802 58.9729 27.1708 55.6677 27.1708ZM55.6677 35.7532C54.3692 35.7532 53.3901 34.545 53.3901 32.9479C53.3901 31.3787 54.3137 30.1913 55.5427 30.1913C56.9662 30.1913 57.8897 31.3231 57.8897 33.066C57.8897 34.6005 56.9384 35.7532 55.6677 35.7532Z" fill="white"/>
<path d="M82.4565 22.5669H82.1788V22.8377V33.163C82.1788 34.2254 82.0677 34.6489 82.0052 34.8017C81.7899 35.2253 81.2969 35.4336 80.4984 35.4336H79.3874H78.1514H75.3531C75.2559 31.3298 73.513 28.6912 70.1731 27.5941C69.5829 27.3928 69.0482 27.2747 68.6247 27.24C68.2914 27.2192 67.4373 27.1914 66.0346 27.1914H65.7569V27.4622V29.9342V30.205H66.0346C67.0415 30.205 67.8192 30.2744 68.4719 30.4202C70.7841 30.9132 71.9437 32.5519 72.0132 35.4336H63.3335H63.0627V35.7044V38.468V38.7457H63.3335H78.1514H79.3874H81.0678C84.005 38.7457 85.4979 37.1764 85.4979 34.0796V22.8308V22.5669H85.227H82.4565Z" fill="white"/>
<path d="M87.7754 22.5393H87.4976V22.8171V38.4751V38.7529H87.7754H90.5181H90.7889V38.4751V22.8171V22.5393H90.5181H87.7754Z" fill="white"/>
<path d="M31.5522 55.619H0.0138855V56.6953H31.5522V55.619Z" fill="white"/>
<path d="M90.7959 55.619H59.2506V56.6953H90.7959V55.619Z" fill="white"/>
<path d="M37.7321 52.4667V58.7855H36.267V53.6402H35.0032V52.4667H37.7321Z" fill="white"/>
<path d="M44.3217 55.4871C44.3217 57.6744 43.0162 58.8895 41.0998 58.8895C40.4332 58.8895 39.7944 58.7368 39.35 58.459L39.8916 57.3828C40.2318 57.6188 40.6415 57.7022 41.072 57.7022C42.1205 57.7022 42.8079 57.0772 42.8496 55.8621C42.4816 56.2301 41.94 56.4315 41.2803 56.4315C40.0582 56.4315 39.1069 55.6538 39.1069 54.4664C39.1069 53.1749 40.1624 52.3625 41.5025 52.3625C43.2454 52.3555 44.3217 53.4526 44.3217 55.4871ZM42.6829 54.39C42.6829 53.8484 42.2802 53.4526 41.5789 53.4526C40.954 53.4526 40.5235 53.8137 40.5235 54.39C40.5235 54.9663 40.947 55.3344 41.5997 55.3344C42.2455 55.3344 42.6829 54.9386 42.6829 54.39Z" fill="white"/>
<path d="M47.8491 52.4667V58.7855H46.384V53.6402H45.1202V52.4667H47.8491Z" fill="white"/>
<path d="M54.4387 55.4871C54.4387 57.6744 53.1332 58.8895 51.2168 58.8895C50.5502 58.8895 49.9114 58.7368 49.467 58.459L50.0086 57.3828C50.3488 57.6188 50.7585 57.7022 51.189 57.7022C52.2375 57.7022 52.9249 57.0772 52.9666 55.8621C52.5986 56.2301 52.057 56.4315 51.3973 56.4315C50.1752 56.4315 49.2239 55.6538 49.2239 54.4664C49.2239 53.1749 50.2794 52.3625 51.6195 52.3625C53.3624 52.3555 54.4387 53.4526 54.4387 55.4871ZM52.8069 54.39C52.8069 53.8484 52.4042 53.4526 51.7028 53.4526C51.0779 53.4526 50.6474 53.8137 50.6474 54.39C50.6474 54.9663 51.071 55.3344 51.7237 55.3344C52.3625 55.3344 52.8069 54.9386 52.8069 54.39Z" fill="white"/>
<path d="M0.777693 65.6945V67.5555H3.45102V68.2082H0.777693V70.3607H0.0138855V65.028H3.77737V65.6876H0.777693V65.6945Z" fill="white"/>
<path d="M4.77725 67.701C4.77725 66.1387 5.97851 64.9722 7.61723 64.9722C9.24205 64.9722 10.4433 66.1318 10.4433 67.701C10.4433 69.2703 9.24205 70.4299 7.61723 70.4299C5.97851 70.4299 4.77725 69.2634 4.77725 67.701ZM9.67951 67.701C9.67951 66.5206 8.79766 65.6527 7.61723 65.6527C6.42291 65.6527 5.54106 66.5206 5.54106 67.701C5.54106 68.8815 6.42291 69.7494 7.61723 69.7494C8.79766 69.7494 9.67951 68.8815 9.67951 67.701Z" fill="white"/>
<path d="M11.9779 68.0691V65.0347H12.7417V68.0343C12.7417 69.2148 13.2833 69.7494 14.2416 69.7494C15.1998 69.7494 15.7483 69.2148 15.7483 68.0343V65.0347H16.4844V68.0691C16.4844 69.6175 15.6372 70.4299 14.2277 70.4299C12.832 70.4299 11.9779 69.6106 11.9779 68.0691Z" fill="white"/>
<path d="M21.7477 69.0342H18.9147L18.3314 70.3674H17.5468L19.9632 65.0347H20.72L23.1434 70.3674H22.3449L21.7477 69.0342ZM21.4769 68.4232L20.3242 65.8124L19.1716 68.4232H21.4769Z" fill="white"/>
<path d="M24.3377 65.0347H26.5875C28.3026 65.0347 29.4691 66.1179 29.4691 67.701C29.4691 69.2842 28.3026 70.3674 26.5875 70.3674H24.3377V65.0347ZM26.5389 69.7008C27.8582 69.7008 28.7053 68.8954 28.7053 67.701C28.7053 66.5067 27.8582 65.6943 26.5389 65.6943H25.1015V69.7008H26.5389Z" fill="white"/>
<path d="M32.6423 69.6592L33.0867 69.1384C33.3784 69.5481 33.7464 69.7703 34.1977 69.7703C34.8018 69.7703 35.1143 69.4023 35.1143 68.6871V65.6943H33.1909V65.0347H35.8712V68.6523C35.8712 69.8397 35.2948 70.4299 34.2047 70.4299C33.5658 70.4299 32.9826 70.1522 32.6423 69.6592Z" fill="white"/>
<path d="M41.7039 69.7009V70.3606H37.8362V65.0278H41.5997V65.6875H38.6V67.3262H41.2734V67.972H38.6V69.694H41.7039V69.7009Z" fill="white"/>
<path d="M46.9186 70.3674L45.766 68.7287C45.6618 68.7357 45.5507 68.7426 45.4327 68.7426H44.1134V70.3674H43.3495V65.0347H45.4257C46.8145 65.0347 47.6477 65.736 47.6477 66.8956C47.6477 67.7149 47.2241 68.3121 46.4742 68.576L47.738 70.3674H46.9186ZM46.8978 66.8956C46.8978 66.1318 46.3839 65.7013 45.4118 65.7013H44.1203V68.1038H45.4118C46.3839 68.0968 46.8978 67.6524 46.8978 66.8956Z" fill="white"/>
<path d="M51.7723 65.0347H54.022C55.7371 65.0347 56.9037 66.1179 56.9037 67.701C56.9037 69.2842 55.7371 70.3674 54.022 70.3674H51.7723V65.0347ZM53.9734 69.7008C55.2927 69.7008 56.1399 68.8954 56.1399 67.701C56.1399 66.5067 55.2927 65.6943 53.9734 65.6943H52.5361V69.7008H53.9734Z" fill="white"/>
<path d="M58.0494 67.701C58.0494 66.1387 59.2506 64.9722 60.8894 64.9722C62.5142 64.9722 63.7154 66.1318 63.7154 67.701C63.7154 69.2703 62.5142 70.4299 60.8894 70.4299C59.2506 70.4299 58.0494 69.2634 58.0494 67.701ZM62.9516 67.701C62.9516 66.5206 62.0698 65.6527 60.8894 65.6527C59.695 65.6527 58.8132 66.5206 58.8132 67.701C58.8132 68.8815 59.695 69.7494 60.8894 69.7494C62.0698 69.7494 62.9516 68.8815 62.9516 67.701Z" fill="white"/>
<path d="M65.25 68.0691V65.0347H66.0138V68.0343C66.0138 69.2148 66.5554 69.7494 67.5136 69.7494C68.4719 69.7494 69.0204 69.2148 69.0204 68.0343V65.0347H69.7565V68.0691C69.7565 69.6175 68.9093 70.4299 67.4998 70.4299C66.1041 70.4299 65.25 69.6106 65.25 68.0691Z" fill="white"/>
<path d="M75.6031 69.7009V70.3606H71.7354V65.0278H75.4989V65.6875H72.4992V67.3262H75.1725V67.972H72.4992V69.694H75.6031V69.7009Z" fill="white"/>
<path d="M77.2557 65.0347H78.0195V70.3674H77.2557V65.0347Z" fill="white"/>
<path d="M84.616 65.0347V70.3674H83.8522V67.9927H80.79V70.3674H80.0262V65.0347H80.79V67.3261H83.8522V65.0347H84.616Z" fill="white"/>
<path d="M88.6711 68.5205V70.3606H87.9142V68.4997L85.7964 65.0278H86.6088L88.317 67.84L90.0321 65.0278H90.7889L88.6711 68.5205Z" fill="white"/>
</svg>
