<svg width="116" height="90" viewBox="0 0 116 90" fill="none" xmlns="http://www.w3.org/2000/svg">
<path d="M7.80297 22.1128H11.656H12.7757H34.3507H35.2589H37.8158C41.3161 22.1128 43.0971 20.1466 43.0971 16.276L43.0795 1.72808V1.38422H42.7356H39.4469H39.103V1.72808L39.1207 15.121C39.1207 16.4611 38.9884 16.9813 38.9091 17.1753C38.7504 17.5015 38.38 17.96 37.1369 17.96H35.25H34.3419H32.4551C32.1288 13.8249 30.6035 10.8624 27.9144 9.15192C26.3361 8.14679 24.4758 7.64423 22.3862 7.64423C21.0283 7.64423 19.6794 7.944 18.3656 8.52592C17.1665 9.07257 16.1085 9.79556 15.121 10.7478L14.9182 10.9418L15.0681 11.1798C15.844 12.3877 16.3377 13.2342 16.6375 13.8249L16.8668 14.2834L17.2018 13.8954C17.8719 13.1195 18.7183 12.5112 19.7234 12.0791C20.5611 11.7176 21.3458 11.5325 22.0599 11.5325C24.1143 11.5325 25.719 12.2643 26.8475 13.7103C27.7645 14.9006 28.2406 16.3024 28.2935 17.9865H12.7757H11.656H8.05866V7.98809V7.65305H7.7148H4.42609H4.08223V7.9969V19.5912C4.08223 22.2979 2.89195 23.5588 0.34386 23.5588H0V23.9026V26.8122V27.1561H0.34386C4.47018 27.1473 7.16815 25.3221 7.80297 22.1128Z" fill="#0047BA"/>
<path d="M20.3671 24.6785V25.0136V28.4169V28.7608H20.7109H23.9379H24.2818V28.4169V25.0136V24.6785H23.9379H20.7109H20.3671Z" fill="#0047BA"/>
<path d="M45.4336 22.1128H45.7774H49.0397H49.3836V21.769L49.3659 1.72811V1.39307H49.0221H45.7598H45.4159V1.73693L45.4336 21.769V22.1128Z" fill="#0047BA"/>
<path d="M72.8101 22.1128H73.154V21.769V18.3127C73.1275 12.9785 71.0467 9.56635 66.9909 8.15564C66.2856 7.90877 65.6508 7.75006 65.1394 7.71479C64.7426 7.68834 63.7287 7.65308 62.0623 7.65308H61.7184V7.99694V11.0917V11.4355H62.0623C63.279 11.4355 64.1695 11.5149 64.9542 11.7C67.6963 12.3172 69.0717 14.3716 69.1511 17.9777H58.8529H58.5091V18.3215V21.7778V22.1216H58.8529H72.8101V22.1128Z" fill="#0047BA"/>
<path d="M79.4316 2.72811L79.4228 2.39307H79.0878H75.8255H75.4816V2.73693L75.4993 22.769V23.1128H75.8431H79.1054H79.4492V22.769L79.4316 2.72811Z" fill="#0047BA"/>
<path d="M91.0964 6.60387H91.4402V6.26001V4.34674V4.00288H91.0964H88.3543C88.178 3.89708 88.0898 3.6502 88.0898 3.27989C88.0898 2.46874 88.4513 2.46874 88.6012 2.46874C88.6894 2.46874 88.9098 2.46874 89.095 3.0242L89.2184 3.3857L89.5622 3.21818L91.211 2.43347L91.502 2.2924L91.3785 1.99262C90.8319 0.68772 89.862 0 88.5924 0C86.8555 0 85.4888 1.47243 85.4888 3.35043C85.4888 3.5444 85.5065 3.76482 85.5505 4.0117H84.5631H84.2192V4.35556V6.26001V6.60387H84.5631H91.0964Z" fill="#0047BA"/>
<path d="M109.965 5.48413H110.308V5.14027V1.7722V1.42834H109.965H106.755H106.42V1.7722V5.14027V5.48413H106.755H109.965Z" fill="#0047BA"/>
<path d="M88.3014 22.1128H90.9641C90.488 23.2326 89.5975 23.7616 88.1868 23.7616H87.843V24.1054V26.777V27.1208H88.1868C92.0839 27.1208 94.341 25.4368 94.8877 22.1128H97.9119H98.582H108.369C112.442 22.1128 115.29 19.0974 115.29 14.786C115.29 10.4745 112.38 7.34448 108.369 7.34448C104.26 7.34448 101.386 10.3687 101.386 14.6978C101.386 15.8528 101.606 16.9461 102.038 17.9689H98.582H97.9119H94.9053V14.7948C94.9053 10.642 92.1897 7.62662 88.4513 7.62662C84.4396 7.62662 81.53 10.6067 81.53 14.7066C81.5212 18.8594 84.5013 22.1128 88.3014 22.1128ZM88.3896 11.4267C89.8091 11.4267 90.7614 12.4583 90.9289 14.1864V17.9689H88.3632C86.8202 17.9689 85.5594 16.4171 85.5594 14.5215C85.5594 12.6434 86.6703 11.4267 88.3896 11.4267ZM108.254 11.1269C110.009 11.1269 111.234 12.6346 111.234 14.7948C111.234 16.8932 110.106 18.3039 108.43 18.3039C106.729 18.3039 105.45 16.7433 105.45 14.6713C105.459 12.5112 106.552 11.1269 108.254 11.1269Z" fill="#0047BA"/>
<path d="M6.5157 57.0014H6.17184V57.3541V60.7662V61.1189H6.5157H9.97194H10.3158V60.7662V57.3541V57.0014H9.97194H6.5157Z" fill="#0047BA"/>
<path d="M12.4495 57.0014H12.1056V57.3541V60.7662V61.1189H12.4495H15.9057H16.2584V60.7662V57.3541V57.0014H15.9057H12.4495Z" fill="#0047BA"/>
<path d="M57.4599 34.5359H57.116V34.8797V42.1184C57.116 43.4674 56.9749 44.0052 56.8956 44.1992C56.6222 44.737 55.9963 45.0016 54.9823 45.0016H52.6546H52.0286H50.2035C50.0801 37.1457 45.848 31.45 39.0942 30.1098L38.7327 30.0392L38.6798 30.4096L38.239 33.7071L38.1949 34.0333L38.5123 34.095C42.8679 34.9767 46.0243 39.3146 46.0243 44.402C46.0243 44.6048 46.0243 44.8076 46.0155 45.0104H42.7092C43.1412 43.8906 43.3616 42.9384 43.3616 42.1537C43.3616 38.3183 40.7959 35.832 36.8283 35.832C32.9047 35.832 30.2597 38.3712 30.2597 42.1537C30.2597 42.956 30.4713 43.873 30.9033 45.0104H27.932H27.0856H26.6183C24.9519 45.0104 23.8321 44.1639 22.6154 41.9862C21.1694 39.4381 18.974 38.142 16.0909 38.142H14.7066H14.3628V38.4859V41.6247V42.0303L14.7683 41.9597C14.927 41.9333 15.0946 41.9333 15.2797 41.9333C17.0255 41.9333 18.1011 43.053 18.1011 44.8517C18.1011 47.9023 15.1122 50.2917 11.2857 50.2917C6.94773 50.2917 4.24975 47.4527 4.24975 42.8855V39.8348V39.491H3.90589H0.387942H0.0440826V39.8348V43.2823C0.0440826 49.4717 4.94629 54.3122 11.1975 54.3122C16.2937 54.3122 20.4112 51.385 21.6896 46.9589C22.9328 48.546 24.176 49.075 26.7417 49.1808V49.1896L27.0856 49.2072H52.0198H52.6458H55.7229C59.4348 49.2072 61.3128 47.2146 61.3128 43.2823V34.8797V34.5359H60.969H57.4599ZM36.8283 39.2617C38.3712 39.2617 39.3675 40.3903 39.3675 42.1449C39.3675 43.8289 38.2742 45.0897 36.8283 45.0897C35.3558 45.0897 34.289 43.8465 34.289 42.1449C34.2802 40.7518 34.9503 39.2617 36.8283 39.2617Z" fill="#0047BA"/>
<path d="M51.4908 51.7994H51.1469V52.1521V55.5995V55.9434H51.4908H54.947H55.2997V55.5995V52.1521V51.7994H54.947H51.4908Z" fill="#0047BA"/>
<path d="M57.4334 51.7994H57.0807V52.1521V55.5995V55.9434H57.4334H60.8808H61.2335V55.5995V52.1521V51.7994H60.8808H57.4334Z" fill="#0047BA"/>
<path d="M70.6852 34.5006C66.506 34.5006 63.5876 37.516 63.5876 41.8363C63.5876 46.1742 66.506 49.1984 70.6852 49.1984C71.902 49.1984 72.8542 48.9163 73.5507 48.352C73.2333 49.9567 72.2546 50.7943 70.6411 50.8384L70.3061 50.8472V51.1822V53.9243V54.2681H70.65C75.4023 54.2681 77.8093 52.2931 77.8093 48.4137V41.9156C77.8181 37.5601 74.8821 34.5006 70.6852 34.5006ZM70.6852 45.3983C69.0365 45.3983 67.7933 43.8642 67.7933 41.8363C67.7933 39.8437 68.9659 38.336 70.5265 38.336C72.334 38.336 73.5066 39.7731 73.5066 41.9862C73.5066 43.9347 72.2987 45.3983 70.6852 45.3983Z" fill="#0047BA"/>
<path d="M104.701 28.655H104.348V28.9988V42.1096C104.348 43.4586 104.207 43.9964 104.128 44.1904C103.854 44.7282 103.228 44.9927 102.215 44.9927H100.804H99.2344H95.6812C95.5578 39.7819 93.3447 36.4315 89.1038 35.0384C88.3543 34.7827 87.6754 34.6328 87.1376 34.5888C86.7144 34.5623 85.6299 34.527 83.8489 34.527H83.4962V34.8709V38.0097V38.3536H83.8489C85.1273 38.3536 86.1148 38.4417 86.9436 38.6269C89.8797 39.2529 91.3521 41.3337 91.4403 44.9927H80.4191H80.0752V45.3366V48.8457V49.1984H80.4191H99.2344H100.804H102.938C106.667 49.1984 108.563 47.2058 108.563 43.2734V28.99V28.655H108.219H104.701Z" fill="#0047BA"/>
<path d="M111.455 28.6198H111.102V28.9724V48.8546V49.2073H111.455H114.937H115.281V48.8546V28.9724V28.6198H114.937H111.455Z" fill="#0047BA"/>
<path d="M40.0641 70.6235H0.0176353V71.9902H40.0641V70.6235Z" fill="#0047BA"/>
<path d="M115.29 70.6235H75.2348V71.9902H115.29V70.6235Z" fill="#0047BA"/>
<path d="M47.9111 66.6207V74.6441H46.0508V68.1107H44.4461V66.6207H47.9111Z" fill="#0047BA"/>
<path d="M56.2784 70.456C56.2784 73.2333 54.6208 74.7763 52.1873 74.7763C51.3409 74.7763 50.5298 74.5823 49.9655 74.2296L50.6532 72.863C51.0852 73.1628 51.6054 73.2686 52.1521 73.2686C53.4834 73.2686 54.3563 72.4751 54.4092 70.9321C53.9419 71.3994 53.2542 71.6551 52.4166 71.6551C50.8648 71.6551 49.6569 70.6676 49.6569 69.1599C49.6569 67.52 50.9971 66.4884 52.6987 66.4884C54.9118 66.4796 56.2784 67.8726 56.2784 70.456ZM54.1976 69.0629C54.1976 68.3752 53.6862 67.8726 52.7957 67.8726C52.0022 67.8726 51.4555 68.3311 51.4555 69.0629C51.4555 69.7947 51.9934 70.262 52.8222 70.262C53.6421 70.262 54.1976 69.7595 54.1976 69.0629Z" fill="#0047BA"/>
<path d="M60.7574 66.6207V74.6441H58.897V68.1107H57.2923V66.6207H60.7574Z" fill="#0047BA"/>
<path d="M69.1246 70.456C69.1246 73.2333 67.4671 74.7763 65.0336 74.7763C64.1872 74.7763 63.376 74.5823 62.8117 74.2296L63.4994 72.863C63.9315 73.1628 64.4517 73.2686 64.9983 73.2686C66.3297 73.2686 67.2025 72.4751 67.2554 70.9321C66.7882 71.3994 66.1004 71.6551 65.2628 71.6551C63.711 71.6551 62.5031 70.6676 62.5031 69.1599C62.5031 67.52 63.8433 66.4884 65.545 66.4884C67.758 66.4796 69.1246 67.8726 69.1246 70.456ZM67.0527 69.0629C67.0527 68.3752 66.5413 67.8726 65.6508 67.8726C64.8572 67.8726 64.3106 68.3311 64.3106 69.0629C64.3106 69.7947 64.8484 70.262 65.6772 70.262C66.4884 70.262 67.0527 69.7595 67.0527 69.0629Z" fill="#0047BA"/>
<path d="M0.987496 83.4169V85.7798H4.38201V86.6086H0.987496V89.3418H0.0176353V82.5704H4.79641V83.408H0.987496V83.4169Z" fill="#0047BA"/>
<path d="M6.06604 85.965C6.06604 83.9812 7.59137 82.4999 9.67216 82.4999C11.7353 82.4999 13.2606 83.9723 13.2606 85.965C13.2606 87.9576 11.7353 89.43 9.67216 89.43C7.59137 89.43 6.06604 87.9488 6.06604 85.965ZM12.2908 85.965C12.2908 84.4661 11.171 83.364 9.67216 83.364C8.15565 83.364 7.0359 84.4661 7.0359 85.965C7.0359 87.4638 8.15565 88.5659 9.67216 88.5659C11.171 88.5659 12.2908 87.4638 12.2908 85.965Z" fill="#0047BA"/>
<path d="M15.2092 86.4322V82.5793H16.179V86.3882C16.179 87.887 16.8668 88.5659 18.0835 88.5659C19.3002 88.5659 19.9968 87.887 19.9968 86.3882V82.5793H20.9314V86.4322C20.9314 88.3984 19.8557 89.43 18.0659 89.43C16.2937 89.43 15.2092 88.3896 15.2092 86.4322Z" fill="#0047BA"/>
<path d="M27.6146 87.6578H24.0173L23.2767 89.3506H22.2804L25.3486 82.5793H26.3097L29.3868 89.3506H28.3728L27.6146 87.6578ZM27.2707 86.8819L25.8071 83.5667L24.3435 86.8819H27.2707Z" fill="#0047BA"/>
<path d="M30.9033 82.5793H33.76C35.9378 82.5793 37.419 83.9547 37.419 85.9649C37.419 87.9752 35.9378 89.3506 33.76 89.3506H30.9033V82.5793ZM33.6983 88.5042C35.3735 88.5042 36.4491 87.4815 36.4491 85.9649C36.4491 84.4484 35.3735 83.4169 33.6983 83.4169H31.8732V88.5042H33.6983Z" fill="#0047BA"/>
<path d="M41.4483 88.4513L42.0126 87.79C42.3829 88.3102 42.8502 88.5924 43.4233 88.5924C44.1904 88.5924 44.5872 88.1251 44.5872 87.2169V83.4169H42.1449V82.5793H45.5482V87.1729C45.5482 88.6806 44.8164 89.43 43.4321 89.43C42.621 89.43 41.8804 89.0773 41.4483 88.4513Z" fill="#0047BA"/>
<path d="M52.9544 88.5042V89.3418H48.0434V82.5704H52.8222V83.408H49.0132V85.4888H52.4078V86.3088H49.0132V88.4954H52.9544V88.5042Z" fill="#0047BA"/>
<path d="M59.5759 89.3506L58.1123 87.2699C57.9801 87.2787 57.839 87.2875 57.6891 87.2875H56.0139V89.3506H55.044V82.5793H57.6803C59.4437 82.5793 60.5017 83.4698 60.5017 84.9422C60.5017 85.9826 59.9639 86.7408 59.0116 87.0759L60.6163 89.3506H59.5759ZM59.5495 84.9422C59.5495 83.9723 58.897 83.4257 57.6626 83.4257H56.0227V86.4763H57.6626C58.897 86.4675 59.5495 85.9032 59.5495 84.9422Z" fill="#0047BA"/>
<path d="M65.7389 82.5793H68.5956C70.7734 82.5793 72.2546 83.9547 72.2546 85.9649C72.2546 87.9752 70.7734 89.3506 68.5956 89.3506H65.7389V82.5793ZM68.5339 88.5042C70.2091 88.5042 71.2848 87.4815 71.2848 85.9649C71.2848 84.4484 70.2091 83.4169 68.5339 83.4169H66.7088V88.5042H68.5339Z" fill="#0047BA"/>
<path d="M73.7094 85.965C73.7094 83.9812 75.2348 82.4999 77.3156 82.4999C79.3787 82.4999 80.904 83.9723 80.904 85.965C80.904 87.9576 79.3787 89.43 77.3156 89.43C75.2348 89.43 73.7094 87.9488 73.7094 85.965ZM79.9342 85.965C79.9342 84.4661 78.8144 83.364 77.3156 83.364C75.7991 83.364 74.6793 84.4661 74.6793 85.965C74.6793 87.4638 75.7991 88.5659 77.3156 88.5659C78.8144 88.5659 79.9342 87.4638 79.9342 85.965Z" fill="#0047BA"/>
<path d="M82.8526 86.4322V82.5793H83.8224V86.3882C83.8224 87.887 84.5102 88.5659 85.7269 88.5659C86.9436 88.5659 87.6402 87.887 87.6402 86.3882V82.5793H88.5748V86.4322C88.5748 88.3984 87.4991 89.43 85.7093 89.43C83.9371 89.43 82.8526 88.3896 82.8526 86.4322Z" fill="#0047BA"/>
<path d="M95.9986 88.5042V89.3418H91.0876V82.5704H95.8664V83.408H92.0574V85.4888H95.452V86.3088H92.0574V88.4954H95.9986V88.5042Z" fill="#0047BA"/>
<path d="M98.097 82.5793H99.0669V89.3506H98.097V82.5793Z" fill="#0047BA"/>
<path d="M107.443 82.5793V89.3506H106.473V86.3353H102.585V89.3506H101.615V82.5793H102.585V85.4888H106.473V82.5793H107.443Z" fill="#0047BA"/>
<path d="M112.592 87.0053V89.3418H111.631V86.9789L108.942 82.5704H109.973L112.142 86.1413L114.32 82.5704H115.281L112.592 87.0053Z" fill="#0047BA"/>
</svg>
