<svg width="20" height="18" viewBox="0 0 20 18" fill="none" xmlns="http://www.w3.org/2000/svg">
<g clip-path="url(#clip0_9_10)">
<path d="M20 6.24402C19.9526 6.52587 19.9115 6.80867 19.8562 7.08907C19.6594 8.08776 19.2122 8.97122 18.5624 9.75769C18.4439 9.90078 18.302 10.0251 18.1685 10.1562C15.5897 12.6856 13.0104 15.215 10.4316 17.7444C10.0852 18.0838 9.91047 18.0848 9.56647 17.7477C7.08213 15.3148 4.5973 12.8829 2.11443 10.4491C1.50912 9.85564 0.957156 9.22426 0.596029 8.44883C0.0885909 7.35795 -0.0944195 6.21858 0.0455296 5.03215C0.187925 3.82363 0.635665 2.73323 1.44404 1.8032C2.36252 0.746891 3.51049 0.115506 4.94522 0.0242791C6.06285 -0.0467817 7.02292 0.350775 7.9091 0.964395C8.63674 1.46854 9.26113 2.08312 9.81897 2.76348C9.87182 2.82782 9.92515 2.89168 9.9966 2.97811C10.0573 2.90656 10.1091 2.84559 10.1605 2.78413C10.8945 1.90211 11.7127 1.1118 12.7432 0.563957C14.3101 -0.269087 15.8588 -0.160095 17.3317 0.757934C18.8579 1.70909 19.658 3.13895 19.9266 4.87274C19.9521 5.03551 19.976 5.19876 20.0005 5.362C20 5.65633 20 5.95018 20 6.24402ZM9.98436 17.064C10.0866 16.9464 10.137 16.8791 10.1962 16.821C12.7006 14.3642 15.2109 11.913 17.7046 9.4456C18.0158 9.13735 18.28 8.76572 18.4958 8.38545C19.0972 7.32434 19.2861 6.17536 19.0997 4.97837C18.8481 3.3627 18.0779 2.06392 16.5786 1.27024C15.6513 0.779541 14.6673 0.671029 13.6593 1.04986C12.8656 1.34803 12.1966 1.83345 11.6202 2.43123C11.1788 2.8888 10.7834 3.39007 10.3753 3.87837C10.1493 4.14869 9.84001 4.15445 9.62372 3.87693C9.5606 3.79579 9.50188 3.71128 9.43974 3.62918C8.84764 2.85279 8.18313 2.1465 7.36643 1.59098C6.78168 1.19342 6.15338 0.885172 5.43014 0.84484C4.05316 0.767537 2.95314 1.32642 2.07675 2.3328C1.38483 3.12503 1.00462 4.05842 0.878863 5.09169C0.752615 6.12879 0.904798 7.12412 1.33737 8.08104C1.67256 8.8219 2.22306 9.39807 2.79362 9.95839C5.13655 12.2573 7.48387 14.5524 9.82827 16.8499C9.87867 16.8988 9.91243 16.9641 9.98436 17.064Z" fill="white"/>
</g>
<defs>
<clipPath id="clip0_9_10">
<rect width="20" height="18" fill="white"/>
</clipPath>
</defs>
</svg>
