<svg width="20" height="22" viewBox="0 0 20 22" fill="none" xmlns="http://www.w3.org/2000/svg">
<path d="M16.5488 0C16.8255 0.0706048 17.1084 0.124563 17.3782 0.213537C19.1492 0.797892 20.204 2.42008 19.9661 4.18003C19.7451 5.81485 18.2352 7.14946 16.4111 7.31133C15.089 7.42843 13.9728 7.02776 13.0538 6.15467C13.0107 6.11334 12.9687 6.07144 12.9255 6.03011C12.9205 6.02552 12.9124 6.02322 12.8811 6.00772C11.1089 7.0909 9.32603 8.1804 7.52879 9.27908C8.13539 10.4214 8.14352 11.5585 7.52692 12.7186C9.30976 13.8087 11.0926 14.8988 12.893 15.9997C13.7719 15.0847 14.8692 14.6169 16.2007 14.6737C17.2249 14.7174 18.1069 15.0859 18.8306 15.7529C20.2234 17.0353 20.3774 19.0811 19.1974 20.5276C18.0149 21.9776 15.8652 22.4133 14.1218 21.5815C12.4454 20.7813 11.3236 18.6976 12.4404 16.6053C10.6613 15.5176 8.87907 14.4281 7.09936 13.3397C5.33968 15.2305 2.44632 14.9269 1.02155 13.462C-0.385694 12.0149 -0.336241 9.80374 1.14737 8.41919C2.65853 7.00824 5.40917 6.87048 7.09435 8.66315C8.87406 7.57481 10.6569 6.48531 12.4059 5.41591C12.2782 5.00491 12.1192 4.62835 12.0472 4.23858C11.6854 2.27313 13.1346 0.401242 15.2711 0.0436257C15.3231 0.0350154 15.3725 0.0149246 15.4233 0.000574023C15.7995 0 16.1744 0 16.5488 0ZM19.1799 3.68006C19.188 2.05558 17.7682 0.741064 15.996 0.732453C14.2445 0.723843 12.7984 2.03778 12.7934 3.6416C12.7884 5.27412 14.1982 6.58863 15.966 6.59954C17.7332 6.61045 19.1717 5.3034 19.1799 3.68006ZM19.1799 18.3435C19.1861 16.7115 17.7488 15.393 15.9691 15.3976C14.2288 15.4016 12.7966 16.7155 12.7928 18.3113C12.7891 19.9433 14.2076 21.2641 15.9685 21.2664C17.7438 21.2693 19.1736 19.9674 19.1799 18.3435ZM7.18512 11.0034C7.18199 9.38126 5.76598 8.07191 4.01257 8.07076C2.21908 8.06961 0.796189 9.36805 0.797441 11.0063C0.798693 12.6297 2.22597 13.9304 4.00443 13.9287C5.76098 13.9269 7.18762 12.6147 7.18512 11.0034Z" fill="white"/>
</svg>
